BBC Documentaire
ca. 250 min.'
1. Volcano
2. Air and the Atmosphere
3. Ice
4. Oceans
5. The Rare Earth 

Deze vijfdelige documentaireserie doet in een notendop de geschiedenis van de aarde uit de doeken en laat zien hoe alle natuurlijke systemen samenwerken om onze planeet in stand te houden. We gaan op onderzoek naar de machtige factoren die het leven op aarde beheersen, zoals de vulkanen, de oceanen, de dampkring en het ijs. We ontdekken welke rol deze oerkrachten hebben gespeeld in de geschiedenis van de planeet en welke invloed ze hebben op het klimaat. 

Documentary,
In each episode, geologist Dr. Iain Stewart explains the effects and importance of a specific force of nature...
1. Volcano
2. Air & the atmosphere
3. Ice
4. Oceans
5. The rare earth 

------------------------ Dutch Friends ------------------------
---------------------------------------------------------------
- Bezoek ook eens mijn vrienden op:  http://www.Film-Test.nl --
----- voor mijn Nederlandse Sync. ondertitels ---- en meer ----
------- http://www.Film-Test.nl ---- voor Films en meer -------
---------------------------------------------------------------

General:

Complete name                    : Earth, The Power of the Planet\01Volcano.avi
Format                           : AVI
Format/Info                      : Audio Video Interleave
File size                        : 1.17 GiB
Duration                         : 59mn 15s
Overall bit rate                 : 2 834 Kbps

Video:

Format                           : MPEG-4 Visual
Format profile                   : Simple@L3
Format settings, BVOP            : No
Format settings, QPel            : No
Format settings, GMC             : No warppoints
Format settings, Matrix          : Default (H.263)
Codec ID                         : XVID
Codec ID/Hint                    : XviD
Duration                         : 59mn 15s
Bit rate                         : 2 376 Kbps
Width                            : 704 pixels
Height                           : 396 pixels
Display aspect ratio             : 16:9
Frame rate                       : 25.000 fps
Color space                      : YUV
Chroma subsampling               : 4:2:0
Bit depth                        : 8 bits
Scan type                        : Progressive
Compression mode                 : Lossy
Bits/(Pixel*Frame)               : 0.341
Stream size                      : 1 007 MiB (84%)
Writing library                  : XviD 1.1.2 (UTC 2006-11-01)

Audio:

Format                           : AC-3
Format/Info                      : Audio Coding 3
Mode extension                   : CM (complete main)
Codec ID                         : 2000
Duration                         : 59mn 15s
Bit rate mode                    : Constant
Bit rate                         : 448 Kbps
Channel(s)                       : 6 channels
Channel positions                : Front: L C R, Side: L R, LFE
Sampling rate                    : 48.0 KHz
Bit depth                        : 16 bits
Compression mode                 : Lossy
Stream size                      : 190 MiB (16%)
Alignment                        : Aligned on interleaves
Interleave, duration             : 32 ms (0.80 video frame)


